<svg xmlns="http://www.w3.org/2000/svg" width="346.201" height="346.201" viewBox="0 0 346.201 346.201">
  <path id="linkedin" d="M314.884,0H31.317A31.317,31.317,0,0,0,0,31.317V314.884A31.317,31.317,0,0,0,31.317,346.2H314.884A31.317,31.317,0,0,0,346.2,314.884V31.317A31.317,31.317,0,0,0,314.884,0ZM107.129,298.933a9.113,9.113,0,0,1-9.114,9.114H59.221a9.113,9.113,0,0,1-9.114-9.114V136.308a9.113,9.113,0,0,1,9.114-9.114H98.016a9.113,9.113,0,0,1,9.114,9.114ZM78.618,111.865A36.855,36.855,0,1,1,115.473,75.01,36.855,36.855,0,0,1,78.618,111.865Zm231.25,187.8a8.38,8.38,0,0,1-8.38,8.38H259.859a8.38,8.38,0,0,1-8.38-8.38v-76.28c0-11.379,3.338-49.865-29.738-49.865-25.656,0-30.86,26.342-31.9,38.164v87.981a8.379,8.379,0,0,1-8.38,8.38H141.195a8.38,8.38,0,0,1-8.38-8.38V135.574a8.38,8.38,0,0,1,8.38-8.38h40.263a8.38,8.38,0,0,1,8.38,8.38v14.188c9.513-14.277,23.651-25.3,53.754-25.3,66.659,0,66.278,62.276,66.278,96.494v78.707Z" fill="#fff"/>
</svg>
