<svg xmlns="http://www.w3.org/2000/svg" width="36.093" height="36.094" viewBox="0 0 36.093 36.094">
  <path id="linkedin" d="M32.829,0H3.265A3.265,3.265,0,0,0,0,3.265V32.828a3.265,3.265,0,0,0,3.265,3.265H32.828a3.265,3.265,0,0,0,3.265-3.265V3.265A3.265,3.265,0,0,0,32.829,0ZM11.169,31.165a.95.95,0,0,1-.95.95H6.174a.95.95,0,0,1-.95-.95V14.211a.95.95,0,0,1,.95-.95h4.045a.95.95,0,0,1,.95.95ZM8.2,11.663A3.842,3.842,0,1,1,12.039,7.82,3.842,3.842,0,0,1,8.2,11.663ZM32.306,31.242a.874.874,0,0,1-.874.874h-4.34a.874.874,0,0,1-.874-.874V23.289c0-1.186.348-5.2-3.1-5.2-2.675,0-3.217,2.746-3.326,3.979v9.173a.874.874,0,0,1-.874.874h-4.2a.874.874,0,0,1-.874-.874V14.134a.874.874,0,0,1,.874-.874h4.2a.874.874,0,0,1,.874.874v1.479c.992-1.488,2.466-2.637,5.6-2.637,6.95,0,6.91,6.493,6.91,10.06v8.206Z" fill="#fff"/>
</svg>
