<svg xmlns="http://www.w3.org/2000/svg" width="171.912" height="33" viewBox="0 0 171.912 33">
  <g id="logo-medusa" transform="translate(-754.088 -14842)">
    <g id="Grupo_86" data-name="Grupo 86">
      <text id="Med" transform="translate(802 14868)" fill="#fff" font-size="27" font-family="Montserrat-ExtraBold, Montserrat" font-weight="800" letter-spacing="0.02em"><tspan x="0" y="0">Med</tspan></text>
      <text id="USA" transform="translate(865 14868)" fill="#fff" font-size="27" font-family="Montserrat-Bold, Montserrat" font-weight="700" letter-spacing="0.02em"><tspan x="0" y="0">USA</tspan></text>
    </g>
    <g id="Grupo_85" data-name="Grupo 85">
      <g id="Grupo_84" data-name="Grupo 84">
        <path id="Caminho_105" data-name="Caminho 105" d="M.612,1.25,7.276,2.994,7.57,21.437,0,26.43Z" transform="matrix(0.829, 0.559, -0.559, 0.829, 768.868, 14845.596)" fill="#fff"/>
        <path id="Caminho_106" data-name="Caminho 106" d="M0,0,7.321,2.221,7.354,18.29l-7.407,4.8Z" transform="matrix(0.829, 0.559, -0.559, 0.829, 778.093, 14848.496)" fill="#fff"/>
        <path id="Caminho_107" data-name="Caminho 107" d="M0,0,7.321,1.43,7.4,9.859l-7.1,4.688Z" transform="matrix(0.829, 0.559, -0.559, 0.829, 784.5, 14855.576)" fill="#fff"/>
        <path id="Caminho_109" data-name="Caminho 109" d="M-.291-.128,7,0V5.122H0Z" transform="translate(776.315 14856.098) rotate(142)" fill="#fff"/>
        <path id="Caminho_108" data-name="Caminho 108" d="M0,0,4.212-.5,3.963,16.251l-3.936.034Z" transform="translate(776.385 14851.568) rotate(-54)" fill="#fff"/>
      </g>
      <path id="Caminho_110" data-name="Caminho 110" d="M5.5,0l5.395,8.588H-.213Z" transform="translate(787.44 14859.379)" fill="#db0032"/>
    </g>
  </g>
</svg>
