<svg xmlns="http://www.w3.org/2000/svg" width="410.155" height="341.174" viewBox="0 0 410.155 341.174">
  <path id="twitter" d="M403.632,74.18a162.414,162.414,0,0,1-28.28,9.537A88.177,88.177,0,0,0,398.627,46.65h0a4.624,4.624,0,0,0-6.763-5.385h0a163.187,163.187,0,0,1-43.235,17.862,11.02,11.02,0,0,1-2.7.336,11.46,11.46,0,0,1-7.57-2.891,88.424,88.424,0,0,0-58.508-22.081,94.542,94.542,0,0,0-28.014,4.325A85.668,85.668,0,0,0,194.1,100.54,94.33,94.33,0,0,0,192,133.1a3.166,3.166,0,0,1-.8,2.481,3.278,3.278,0,0,1-2.439,1.106c-.1,0-.209-.005-.314-.015C125.69,130.841,69.094,100.6,29.089,51.532h0a4.624,4.624,0,0,0-7.578.593h0A88.527,88.527,0,0,0,35.9,159.611,79.241,79.241,0,0,1,15.728,151.8h0a4.623,4.623,0,0,0-6.868,3.985h0a88.537,88.537,0,0,0,51.646,81.569q-.944.022-1.888.022a79.567,79.567,0,0,1-14.9-1.421h0a4.624,4.624,0,0,0-5.271,5.952h0a88.624,88.624,0,0,0,70,60.278,163.171,163.171,0,0,1-91.39,27.753l-10.227-.006a6.771,6.771,0,0,0-6.619,5.106,7.005,7.005,0,0,0,3.353,7.74,242.7,242.7,0,0,0,121.955,32.883c37.485,0,72.549-7.439,104.219-22.109A230.143,230.143,0,0,0,306,296.414a250.52,250.52,0,0,0,46.692-78.2,247.035,247.035,0,0,0,15.871-85.589v-1.346a15.046,15.046,0,0,1,5.631-11.712,174.776,174.776,0,0,0,35.16-38.591h0a4.624,4.624,0,0,0-5.719-6.795Z" transform="translate(0 -34.49)" fill="#fff"/>
</svg>
