<svg xmlns="http://www.w3.org/2000/svg" width="42.761" height="35.57" viewBox="0 0 42.761 35.57">
  <path id="twitter" d="M42.081,38.629a16.932,16.932,0,0,1-2.948.994,9.193,9.193,0,0,0,2.427-3.864h0a.482.482,0,0,0-.705-.561h0a17.013,17.013,0,0,1-4.507,1.862,1.149,1.149,0,0,1-.282.035,1.2,1.2,0,0,1-.789-.3,9.219,9.219,0,0,0-6.1-2.3,9.857,9.857,0,0,0-2.921.451,8.931,8.931,0,0,0-6.019,6.435,9.834,9.834,0,0,0-.219,3.395.33.33,0,0,1-.083.259.342.342,0,0,1-.254.115l-.033,0A24.173,24.173,0,0,1,3.033,36.268h0a.482.482,0,0,0-.79.062h0a9.229,9.229,0,0,0,1.5,11.206,8.261,8.261,0,0,1-2.1-.814h0a.482.482,0,0,0-.716.415h0a9.23,9.23,0,0,0,5.384,8.5l-.2,0A8.3,8.3,0,0,1,4.558,55.5h0a.482.482,0,0,0-.55.621h0a9.24,9.24,0,0,0,7.3,6.284,17.012,17.012,0,0,1-9.528,2.893H.713a.706.706,0,0,0-.69.532.73.73,0,0,0,.35.807A25.3,25.3,0,0,0,13.087,70.06a25.65,25.65,0,0,0,10.865-2.3A23.994,23.994,0,0,0,31.9,61.8a26.118,26.118,0,0,0,4.868-8.153,25.755,25.755,0,0,0,1.655-8.923v-.14a1.569,1.569,0,0,1,.587-1.221,18.221,18.221,0,0,0,3.666-4.023h0a.482.482,0,0,0-.6-.708Z" transform="translate(0 -34.49)" fill="#fff"/>
</svg>
